<?xml version="1.0" encoding="utf-8"?>
<!-- Generator: Adobe Illustrator 21.1.0, SVG Export Plug-In . SVG Version: 6.00 Build 0)  -->
<svg version="1.1" id="Layer_1" xmlns="http://www.w3.org/2000/svg" xmlns:xlink="http://www.w3.org/1999/xlink" x="0px" y="0px"
	 viewBox="0 0 841.89 595.28" enable-background="new 0 0 841.89 595.28" xml:space="preserve">
<g>
	<path fill-rule="evenodd" clip-rule="evenodd" fill="#006896" d="M273.31,431.036l16.693-84.134h27.377l-16.693,84.134H273.31
		L273.31,431.036z M355.775,403.659h17.361l-4.674-31.05L355.775,403.659L355.775,403.659z M317.38,431.036l41.4-84.134h27.043
		l16.693,84.134h-25.04l-1.669-10.016h-26.709l-4.341,10.016H317.38L317.38,431.036z M427.556,431.036l9.682-63.101h-24.039
		l4.007-21.368h73.451l-4.007,21.368h-22.703l-9.348,63.101H427.556L427.556,431.036z M519.37,403.659h17.361l-4.341-31.05
		L519.37,403.659L519.37,403.659z M481.309,431.036l41.066-84.134h27.043l17.027,84.134h-25.707l-1.002-10.016h-27.043
		l-4.341,10.016H481.309L481.309,431.036z M625.873,251.75H497.668c-4.674,23.704-21.033,43.402-53.752,57.091
		c3.672,11.351,16.359,21.702,29.38,21.702h69.778c10.684,0,19.031-9.015,22.369-16.36h-70.78c-4.34-0.667-4.34-4.006-0.333-4.674
		h69.778c9.014,0,17.027-7.679,21.701-16.025h-80.795c-4.341-0.667-4.341-4.007,0-4.674h81.463c8.346,0,15.691-9.682,18.696-16.026
		h-89.476c-4.341-0.668-4.341-4.674,0-5.008h91.146C614.187,267.775,620.865,260.096,625.873,251.75L625.873,251.75z
		 M214.883,251.75h128.205c4.674,23.704,21.033,43.402,53.752,57.091c-3.672,11.351-16.359,21.702-29.38,21.702h-69.778
		c-10.684,0-19.031-9.015-22.369-16.36h70.78c4.34-0.667,4.34-4.006,0.333-4.674h-69.778c-9.014,0-17.027-7.679-21.701-16.025
		h80.795c4.341-0.667,4.341-4.007,0-4.674h-81.463c-8.346,0-15.691-9.682-18.696-16.026h89.476c4.341-0.668,4.341-4.674,0-5.008
		h-91.146C226.568,267.775,219.891,260.096,214.883,251.75L214.883,251.75z M378.812,180.97c4.674,4.006,10.016,7.679,15.692,10.016
		c4.674-9.682,11.685-17.695,19.364-24.706C400.847,167.616,388.828,172.623,378.812,180.97L378.812,180.97z M356.108,228.045
		h28.713c0.333-12.019,3.005-22.369,7.679-33.053c-6.344-2.671-12.019-6.343-17.361-10.684
		C363.454,195.994,356.777,211.352,356.108,228.045L356.108,228.045z M418.208,201.002v27.043h-28.712
		c0.334-10.684,2.671-21.368,7.345-31.383C403.517,199.333,410.863,200.669,418.208,201.002L418.208,201.002z M461.944,180.97
		c-4.674,4.006-10.016,7.679-15.692,10.016c-5.008-9.682-11.351-17.362-19.364-24.706
		C439.909,167.616,451.928,172.623,461.944,180.97L461.944,180.97z M484.647,228.045h-28.713
		c-0.333-11.685-3.005-22.369-7.345-33.053c6.01-2.671,11.685-6.343,17.027-10.684C477.636,196.662,483.979,211.686,484.647,228.045
		L484.647,228.045z M422.882,201.002v27.043h28.379c0-11.017-2.671-21.368-7.345-31.383
		C437.238,199.333,429.893,200.669,422.882,201.002L422.882,201.002z M378.812,279.461c4.674-3.672,10.016-7.679,15.692-9.682
		c5.008,9.682,11.351,17.695,19.364,24.707C400.847,292.816,388.828,288.141,378.812,279.461L378.812,279.461z M356.108,232.719
		h28.713c0.333,11.685,3.005,22.036,7.679,33.053c-6.344,2.671-12.019,6.344-17.361,10.684
		C363.787,264.77,356.777,249.413,356.108,232.719L356.108,232.719z M418.208,259.763v-27.044h-28.712
		c0.334,10.684,2.671,21.702,7.345,31.05C403.517,261.432,410.863,259.763,418.208,259.763L418.208,259.763z M461.944,279.461
		c-4.34-3.672-10.016-7.345-15.692-9.682c-5.008,9.682-11.351,17.695-19.364,24.707
		C439.909,292.816,451.928,288.141,461.944,279.461L461.944,279.461z M484.647,232.719h-28.713
		c-0.333,11.685-2.671,22.369-7.345,33.053c6.01,2.671,11.685,6.344,17.027,10.684C476.969,264.77,483.979,249.079,484.647,232.719
		L484.647,232.719z M422.882,259.763v-27.044h28.379c0,10.684-2.671,21.368-7.345,31.05
		C437.572,261.432,429.893,259.763,422.882,259.763L422.882,259.763z M418.208,168.951c-7.679,6.01-14.69,14.69-19.364,23.705
		c6.344,2.003,12.687,3.672,19.364,3.672V168.951L418.208,168.951z M422.882,168.951c7.346,6.01,14.357,14.69,19.031,23.705
		c-6.344,2.337-12.687,3.672-19.031,3.672V168.951L422.882,168.951z M418.208,291.814c-7.679-6.01-14.69-14.69-19.364-23.705
		c6.344-2.337,12.687-3.672,19.364-3.672V291.814L418.208,291.814z M422.882,292.148c7.346-6.343,14.357-15.024,19.031-24.038
		c-6.344-2.003-12.687-3.672-19.031-3.672V292.148L422.882,292.148z"/>
</g>
</svg>
